<svg xmlns="http://www.w3.org/2000/svg" xmlns:svg="http://www.w3.org/2000/svg" id="svg32" width="128" height="128" enable-background="new" version="1.0"><metadata id="metadata36"/><defs id="defs20"><linearGradient id="a"><stop id="stop2" offset="0" stop-color="#d5d3cf"/><stop id="stop4" offset="1" stop-color="#f6f5f4"/></linearGradient><linearGradient id="b"><stop id="stop7" offset="0" stop-color="#d5d3cf"/><stop id="stop9" offset="1" stop-color="#949390"/></linearGradient><linearGradient id="c"><stop id="stop12" offset="0" stop-color="#9a9996"/><stop id="stop14" offset="1" stop-color="#77767b"/></linearGradient><filter id="d" width="1.027" height="1.021" x="-.014" y="-.011" color-interpolation-filters="sRGB"><feGaussianBlur id="feGaussianBlur17" stdDeviation="2"/></filter></defs><g id="g28" stroke-width=".25"><path id="path22" d="M111.828-178.55h200L432-58.88l.005 296.24c0 17.728-14.449 32.089-32.177 32.089h-288c-17.728 0-32-14.272-32-32v-384c0-17.728 14.272-32 32-32z" enable-background="new" filter="url(#d)" opacity=".4" transform="matrix(.25 0 0 .25 .02 52.741)"/><path id="path24" fill="#f6f5f4" d="M27.978 7.823h50l30.043 29.918.001 74.06c0 4.432-3.612 8.022-8.044 8.022h-72c-4.432 0-8-3.568-8-8v-96c0-4.432 3.568-8 8-8z" enable-background="new"/><path id="path26" fill="#deddda" d="M77.978 7.823v22c0 4.432 3.61 7.924 8.042 7.924l22-.006z" enable-background="new"/></g><path style="marker:none;fill:#813d9c" id="path30" fill="#26a269" d="M44 48c-4.432 0-8 3.568-8 8v32c0 4.432 3.568 8 8 8h40c4.432 0 8-3.568 8-8V48h-8l4 8-4 8h-8l4-8-4-8h-8l4 8-4 8h-8l4-8-4-8h-8l4 8-4 8h-8l4-8z"/></svg>