<svg xmlns="http://www.w3.org/2000/svg" xmlns:svg="http://www.w3.org/2000/svg" xmlns:xlink="http://www.w3.org/1999/xlink" id="svg4817" width="101.881" height="94.723" version="1.1" viewBox="0 0 95.513 88.803"><defs id="defs4819"><radialGradient id="radialGradient4181" cx="33.284" cy="1002.845" r="80.257" fx="33.284" fy="1002.845" gradientTransform="matrix(1.1432904,-1.9668506e-8,1.8574145e-8,1.0796774,70.127178,-163.84935)" gradientUnits="userSpaceOnUse" xlink:href="#linearGradient4173"/><linearGradient id="linearGradient4173"><stop style="stop-color:#000;stop-opacity:.502" id="stop4175" offset="0"/><stop style="stop-color:#000;stop-opacity:0" id="stop4177" offset="1"/></linearGradient></defs><metadata id="metadata4822"/><g id="layer1" transform="translate(-107.92332,-830.2478)"><rect style="color:#000;display:inline;overflow:visible;visibility:visible;opacity:1;fill:url(#radialGradient4181);fill-opacity:1;fill-rule:nonzero;stroke:none;stroke-width:3.54330707;stroke-linecap:round;stroke-linejoin:miter;stroke-miterlimit:4;stroke-dasharray:none;stroke-dashoffset:0;stroke-opacity:1;marker:none;enable-background:accumulate" id="rect4171" width="95.513" height="88.803" x="107.923" y="830.248"/><path id="path32" d="m 127.49428,898.70065 h -3.37127 l 1.01131,-3.79238 c 0.11861,-0.44487 -0.21717,-0.88178 -0.67746,-0.88178 h -3.97303 c -0.35141,0 -0.64855,0.26013 -0.69496,0.60845 l -0.93471,7.01125 c -0.056,0.42034 0.27135,0.79378 0.69495,0.79378 h 3.46767 l -1.34554,5.68104 c -0.10506,0.44355 0.23409,0.86279 0.68202,0.86279 0.24392,0 0.47839,-0.12778 0.60699,-0.34992 l 5.14079,-8.88082 c 0.27005,-0.46645 -0.0669,-1.05241 -0.60676,-1.05241 z" style="fill:currentColor;stroke-width:.02921349"/><path id="path32-0" d="m 126.99443,898.19899 h -3.37127 l 1.01131,-3.79238 c 0.11861,-0.44487 -0.21717,-0.88178 -0.67746,-0.88178 h -3.97303 c -0.35141,0 -0.64855,0.26013 -0.69496,0.60845 l -0.93471,7.01125 c -0.056,0.42034 0.27135,0.79378 0.69495,0.79378 h 3.46767 l -1.34554,5.68104 c -0.10506,0.44355 0.23409,0.86279 0.68202,0.86279 0.24392,0 0.47839,-0.12778 0.60699,-0.34992 l 5.14079,-8.88082 c 0.27005,-0.46645 -0.0669,-1.05241 -0.60676,-1.05241 z" style="fill:#fc0;stroke-width:.02921349"/></g></svg>