<svg xmlns="http://www.w3.org/2000/svg" xmlns:svg="http://www.w3.org/2000/svg" xmlns:xlink="http://www.w3.org/1999/xlink" id="svg4817" width="101.881" height="94.723" version="1.1" viewBox="0 0 95.513 88.803"><defs id="defs4819"><radialGradient id="radialGradient4181" cx="33.284" cy="1002.845" r="80.257" fx="33.284" fy="1002.845" gradientTransform="matrix(1.1432904,-1.9668506e-8,1.8574145e-8,1.0796774,70.127178,-163.84935)" gradientUnits="userSpaceOnUse" xlink:href="#linearGradient4173"/><linearGradient id="linearGradient4173"><stop style="stop-color:#000;stop-opacity:.502" id="stop4175" offset="0"/><stop style="stop-color:#000;stop-opacity:0" id="stop4177" offset="1"/></linearGradient></defs><metadata id="metadata4822"/><g id="layer1" transform="translate(-107.92332,-830.2478)"><rect style="color:#000;display:inline;overflow:visible;visibility:visible;opacity:1;fill:url(#radialGradient4181);fill-opacity:1;fill-rule:nonzero;stroke:none;stroke-width:3.54330707;stroke-linecap:round;stroke-linejoin:miter;stroke-miterlimit:4;stroke-dasharray:none;stroke-dashoffset:0;stroke-opacity:1;marker:none;enable-background:accumulate" id="rect4171" width="95.513" height="88.803" x="107.923" y="830.248"/><path id="path32" d="m 134.55107,906.70827 c 0.53902,0.93431 -0.13758,2.10222 -1.21416,2.10222 h -14.01396 c -1.07865,0 -1.75212,-1.16972 -1.21415,-2.10222 l 7.00706,-12.14912 c 0.53929,-0.93476 1.89,-0.93307 2.42832,0 z m -8.22105,-2.51181 c -0.74189,0 -1.34332,0.60143 -1.34332,1.34333 0,0.74189 0.60143,1.34331 1.34332,1.34331 0.7419,0 1.34332,-0.60142 1.34332,-1.34331 0,-0.7419 -0.60142,-1.34333 -1.34332,-1.34333 z m -1.27537,-4.82854 0.21663,3.97157 c 0.0101,0.18584 0.1638,0.33133 0.3499,0.33133 h 1.41768 c 0.18611,0 0.33977,-0.14549 0.34991,-0.33133 l 0.21662,-3.97157 c 0.011,-0.20075 -0.14887,-0.36953 -0.3499,-0.36953 h -1.85096 c -0.20103,0 -0.36082,0.16878 -0.34988,0.36953 z" style="fill:currentColor;stroke-width:.02920267"/><path id="path32-8" d="m 134.05141,906.20797 c 0.53902,0.93431 -0.13758,2.10222 -1.21416,2.10222 h -14.01396 c -1.07865,0 -1.75212,-1.16972 -1.21415,-2.10222 l 7.00706,-12.14912 c 0.53929,-0.93476 1.89,-0.93307 2.42832,0 z m -8.22105,-2.51181 c -0.74189,0 -1.34332,0.60143 -1.34332,1.34333 0,0.74189 0.60143,1.34331 1.34332,1.34331 0.7419,0 1.34332,-0.60142 1.34332,-1.34331 0,-0.7419 -0.60142,-1.34333 -1.34332,-1.34333 z m -1.27537,-4.82854 0.21663,3.97157 c 0.0101,0.18584 0.1638,0.33133 0.3499,0.33133 h 1.41768 c 0.18611,0 0.33977,-0.14549 0.34991,-0.33133 l 0.21662,-3.97157 c 0.011,-0.20075 -0.14887,-0.36953 -0.3499,-0.36953 h -1.85096 c -0.20103,0 -0.36082,0.16878 -0.34988,0.36953 z" style="fill:#f57900;fill-opacity:1;stroke-width:.02920267"/></g></svg>