<svg xmlns="http://www.w3.org/2000/svg" xmlns:osb="http://www.openswatchbook.org/uri/2009/osb" xmlns:svg="http://www.w3.org/2000/svg" id="svg7384" width="16" height="16" version="1.1" viewBox="0 0 16 16"><metadata id="metadata90"/><title id="title9167">Gnome Symbolic Icon Theme</title><defs id="defs7386"><linearGradient id="linearGradient7212" osb:paint="solid"><stop id="stop7214" offset="0" style="stop-color:#000;stop-opacity:1"/></linearGradient></defs><g id="layer11" transform="translate(-156,-720)" style="display:inline"><path id="rect6222" d="m 157,721 v 1 h 1 v 1 h -1 v 5 h 1 v 1 h -1 v 1 h 14 v -3 h -1 v -3 h 1 v -3 z m 2,1 h 1 v 1 h -1 z m 2,0 h 1 v 1 h -1 z m 2,0 h 1 v 1 h -1 z m 2,0 h 1 v 1 h -1 z m 2,0 h 1 v 1 h -1 z m 2,0 h 1 v 1 h -1 z m -11,2 h 3 v 3 h -3 z m 4,0 h 3 v 3 h -3 z m 4,0 h 3 v 3 h -3 z m -7,4 h 1 v 1 h -1 z m 2,0 h 1 v 1 h -1 z m 2,0 h 1 v 1 h -1 z m 2,0 h 1 v 1 h -1 z m 2,0 h 1 v 1 h -1 z m 2,0 h 1 v 1 h -1 z" style="fill:#2e3436;fill-opacity:1;stroke:none;stroke-width:.999999;stroke-linecap:butt;stroke-linejoin:miter;stroke-miterlimit:4;stroke-dasharray:none;stroke-opacity:1;stop-color:#000"/><path id="rect6265" d="m 157,729.5 v 5.5 h 14 v -5.5 z m 6,0.5 h 1 v 0 h 1 v 1.5 h 1 v 0.5 h 1 v -1.5 h 1 v 0.5 h 1 v 0.5 h 1.5 v 1 H 169 v 1.5 h -1 v -0.5 h -1 V 733 h -1 v 1 h -1 v -1 h -1 v 1 h -1 v -1 h -1 v 0 h -1 v 1 h -1 v -1 h -1 v 0 h -1.5 v -1 h 1.5 v -1 h 1 v -1 h 1 v 2 h 1 v -1 h 1 z" style="fill:#2e3436;fill-opacity:1;stroke:none;stroke-width:1;stroke-linecap:butt;stroke-linejoin:miter;stroke-miterlimit:4;stroke-dasharray:none;stroke-opacity:1;stop-color:#000"/></g></svg>