<svg xmlns="http://www.w3.org/2000/svg" xmlns:svg="http://www.w3.org/2000/svg" xmlns:xlink="http://www.w3.org/1999/xlink" id="svg2" width="24" height="24" version="1.0"><defs id="defs4"><linearGradient id="linearGradient3865"><stop style="stop-color:#3483d6;stop-opacity:1" id="stop3867" offset="0"/><stop style="stop-color:#e2ecf5;stop-opacity:1" id="stop3869" offset="1"/></linearGradient><linearGradient id="linearGradient3948"><stop style="stop-color:#5ab107;stop-opacity:1" id="stop3950" offset="0"/><stop id="stop3952" offset=".566" style="stop-color:#8ae234;stop-opacity:1"/><stop style="stop-color:#5ab107;stop-opacity:1" id="stop3956" offset="1"/></linearGradient><linearGradient id="linearGradient3922"><stop style="stop-color:#4e9a06;stop-opacity:1" id="stop3924" offset="0"/><stop id="stop3930" offset=".501" style="stop-color:#295103;stop-opacity:1"/><stop style="stop-color:#4e9a06;stop-opacity:1" id="stop3926" offset="1"/></linearGradient><linearGradient id="linearGradient3058"><stop id="stop3060" offset="0" style="stop-color:#3465a4;stop-opacity:1"/><stop id="stop3836" offset=".302" style="stop-color:#204a87;stop-opacity:1"/><stop style="stop-color:#5c8dc1;stop-opacity:1" id="stop3064" offset=".527"/><stop id="stop3890" offset=".685" style="stop-color:#729fcf;stop-opacity:1"/><stop id="stop3066" offset="1" style="stop-color:#1c4278;stop-opacity:1"/></linearGradient><linearGradient id="linearGradient3940" x1="-.01" x2="22.079" y1="21.967" y2="14.799" gradientTransform="matrix(0.8636364,0,0,0.875,4.03125,3.75)" gradientUnits="userSpaceOnUse" xlink:href="#linearGradient3948"/><linearGradient id="linearGradient3942" x1="10" x2="10" y1="17" y2="22" gradientTransform="translate(2,0)" gradientUnits="userSpaceOnUse" xlink:href="#linearGradient3922"/><linearGradient id="linearGradient3871" x1="2" x2="7" y1="8" y2="8" gradientUnits="userSpaceOnUse" spreadMethod="repeat" xlink:href="#linearGradient3865"/><linearGradient id="linearGradient3895" x1="22.469" x2="1.5" y1="6.406" y2="12.688" gradientTransform="translate(1,0)" gradientUnits="userSpaceOnUse" xlink:href="#linearGradient3058"/></defs><metadata id="metadata7"/><g id="layer1" transform="translate(1,-1)"><g id="g3936" transform="translate(-3,0)"><path style="fill:url(#linearGradient3895);fill-opacity:1;stroke:none" id="rect3059" d="m 3,2 0,3 19,0 0,-1 -1,0 0,-1 1,0 0,-1 z M 3,3 4,3 4,4 3,4 z M 5,3 6,3 6,4 5,4 z M 7,3 8,3 8,4 7,4 z m 2,0 1,0 0,1 -1,0 z m 2,0 1,0 0,1 -1,0 z m 2,0 1,0 0,1 -1,0 z m 2,0 1,0 0,1 -1,0 z m 2,0 1,0 0,1 -1,0 z m 2,0 1,0 0,1 -1,0 z m -16,7 0,3 19,0 0,-1 -1,0 0,-1 1,0 0,-1 z m 0,1 1,0 0,1 -1,0 z m 2,0 1,0 0,1 -1,0 z m 2,0 1,0 0,1 -1,0 z m 2,0 1,0 0,1 -1,0 z m 2,0 1,0 0,1 -1,0 z m 2,0 1,0 0,1 -1,0 z m 2,0 1,0 0,1 -1,0 z m 2,0 1,0 0,1 -1,0 z m 2,0 1,0 0,1 -1,0 z"/><path id="path3838" d="m 3.007,5.00391 19,0 0,5 -19,0 z" style="opacity:.7;fill:url(#linearGradient3871);fill-opacity:1;stroke:none"/></g><g id="g3932" transform="translate(-1,1)"><rect id="rect3894" width="19" height="7" x="4.031" y="16" style="fill:url(#linearGradient3940);fill-opacity:1;stroke:none"/><path id="path3840" d="m 23.007,21.00391 -1,0 0,-1 -1,0 0,-1 1,0 0,-1 1,0 z m -3,0 -1,0 0,1 -1,0 0,-2 -1,0 0,1 -1,0 0,1 -1,0 0,-1 -1,0 0,-1 -1,0 0,1 -1,0 0,-3 1,0 0,1 1,0 0,-1 1,0 0,-1 1,0 0,1 1,0 0,1 1,0 0,-2 1,0 0,1 1,0 z m -9,-1 -1,0 0,-1 1,0 z m -2,0 -1,0 0,2 -1,0 0,-1 -1,0 0,-1 -1,0 0,-1 1,0 0,-1 1,0 0,-1 1,0 0,2 1,0 z" style="opacity:.8;fill:url(#linearGradient3942);fill-opacity:1;stroke:none"/></g></g></svg>