<svg xmlns="http://www.w3.org/2000/svg" xmlns:svg="http://www.w3.org/2000/svg" xmlns:xlink="http://www.w3.org/1999/xlink" id="svg1" width="48" height="48" version="1.0"><defs id="defs3"><linearGradient id="linearGradient2794" x1="-.363" x2="59.148" y1="29.208" y2="29.208" gradientUnits="userSpaceOnUse" xlink:href="#linearGradient2788"/><radialGradient id="radialGradient2784" cx="30.324" cy="13.38" r="29.756" fx="30.324" fy="13.38" gradientTransform="matrix(1.531919,0,0,1.531919,-16.12973,-7.117303)" gradientUnits="userSpaceOnUse" xlink:href="#linearGradient2778"/><linearGradient id="linearGradient2778"><stop id="stop2780" offset="0" style="stop-color:#029dff;stop-opacity:1"/><stop id="stop2782" offset="1" style="stop-color:#004fb2;stop-opacity:1"/></linearGradient><linearGradient id="linearGradient2788"><stop id="stop2790" offset="0" style="stop-color:white;stop-opacity:1"/><stop id="stop2792" offset="1" style="stop-color:white;stop-opacity:0"/></linearGradient><filter id="filter5314" width="1.451" height="2.352" x="-.225" y="-.676"><feGaussianBlur id="feGaussianBlur5316" stdDeviation="2.182"/></filter><filter id="filter5407" width="1.412" height="1.192" x="-.206" y="-.096"><feGaussianBlur id="feGaussianBlur5409" stdDeviation=".88"/></filter></defs><metadata id="metadata4"/><path style="fill:url(#radialGradient2784);fill-opacity:1;fill-rule:evenodd;stroke:#0048a4;stroke-width:1.48962474;stroke-linecap:butt;stroke-linejoin:miter;stroke-miterlimit:4;stroke-dasharray:none;stroke-opacity:1;opacity:1" id="path4681" d="M 58.403591,29.207693 A 29.010935,29.010935 0 1 1 0.3817215,29.207693 A 29.010935,29.010935 0 1 1 58.403591,29.207693 z" transform="matrix(0.67131,0,0,0.67131,4.2014714,3.4386811)"/><path id="path2786" d="M 58.403591,29.207693 A 29.010935,29.010935 0 1 1 0.3817215,29.207693 A 29.010935,29.010935 0 1 1 58.403591,29.207693 z" transform="matrix(0.6352324,0,0,0.6352324,5.2618791,4.492416)" style="opacity:.37628868;fill:none;fill-opacity:1;fill-rule:evenodd;stroke:url(#linearGradient2794);stroke-width:1.57422698;stroke-linecap:butt;stroke-linejoin:miter;stroke-miterlimit:4;stroke-dasharray:none;stroke-opacity:1"/><g id="g5323" transform="translate(0,1.125)" style="opacity:.54216865;fill:#000;fill-opacity:1;filter:url(#filter5407)"><rect id="rect5325" width="3.119" height="16.775" x="21.927" y="8.789" rx="1.56" ry="1.56" style="fill:#000;fill-opacity:1;fill-rule:evenodd;stroke:none;stroke-width:1pt;stroke-linecap:butt;stroke-linejoin:miter;stroke-opacity:1"/><rect id="rect5327" width="4.195" height="11.142" x="-2.048" y="31.37" rx="2.097" ry="2.097" transform="matrix(0.710722,-0.703473,0.703473,0.710722,0,0)" style="fill:#000;fill-opacity:1;fill-rule:evenodd;stroke:none;stroke-width:1pt;stroke-linecap:butt;stroke-linejoin:miter;stroke-opacity:1"/><path style="opacity:1;color:#000;fill:#000;fill-opacity:1;fill-rule:evenodd;stroke:none;stroke-width:1;stroke-linecap:butt;stroke-linejoin:miter;marker:none;marker-start:none;marker-mid:none;marker-end:none;stroke-miterlimit:4;stroke-dasharray:none;stroke-dashoffset:0;stroke-opacity:1;visibility:visible;display:inline;overflow:visible;enable-background:accumulate" id="path5329" d="M 25.625,23.875 A 3.375,3.375 0 1 1 18.875,23.875 A 3.375,3.375 0 1 1 25.625,23.875 z" transform="matrix(1.0370371,0,0,1.0370371,0.7473093,-1.6734729)"/></g><g id="g5318" transform="translate(0,0.75)"><rect style="fill:#eeeeec;fill-opacity:1;fill-rule:evenodd;stroke:none;stroke-width:1pt;stroke-linecap:butt;stroke-linejoin:miter;stroke-opacity:1" id="rect2180" width="3.119" height="16.775" x="21.927" y="8.789" rx="1.56" ry="1.56"/><rect style="fill:#eeeeec;fill-opacity:1;fill-rule:evenodd;stroke:none;stroke-width:1pt;stroke-linecap:butt;stroke-linejoin:miter;stroke-opacity:1" id="rect2181" width="4.195" height="11.142" x="-2.048" y="31.37" rx="2.097" ry="2.097" transform="matrix(0.710722,-0.703473,0.703473,0.710722,0,0)"/><path id="path4652" d="M 25.625,23.875 A 3.375,3.375 0 1 1 18.875,23.875 A 3.375,3.375 0 1 1 25.625,23.875 z" transform="matrix(1.0370371,0,0,1.0370371,0.7473093,-1.6734729)" style="opacity:1;color:#000;fill:#eeeeec;fill-opacity:1;fill-rule:evenodd;stroke:none;stroke-width:1;stroke-linecap:butt;stroke-linejoin:miter;marker:none;marker-start:none;marker-mid:none;marker-end:none;stroke-miterlimit:4;stroke-dasharray:none;stroke-dashoffset:0;stroke-opacity:1;visibility:visible;display:inline;overflow:visible;enable-background:accumulate"/></g><path style="opacity:1;color:#000;fill:#2991ef;fill-opacity:1;fill-rule:evenodd;stroke:none;stroke-width:1;stroke-linecap:butt;stroke-linejoin:miter;marker:none;marker-start:none;marker-mid:none;marker-end:none;stroke-miterlimit:4;stroke-dasharray:none;stroke-dashoffset:0;stroke-opacity:1;visibility:visible;display:inline;overflow:visible;filter:url(#filter5314);enable-background:accumulate" id="path5244" d="M 31.5,34.625 A 11.625,3.875 0 1 1 8.25,34.625 A 11.625,3.875 0 1 1 31.5,34.625 z" transform="matrix(1.0053763,0,0,1.0698924,4.1431452,-2.2325271)"/></svg>