<svg xmlns="http://www.w3.org/2000/svg" xmlns:osb="http://www.openswatchbook.org/uri/2009/osb" xmlns:svg="http://www.w3.org/2000/svg" id="svg7384" width="16" height="16" version="1.1" viewBox="0 0 16 16"><metadata id="metadata90"/><title id="title9167">Gnome Symbolic Icon Theme</title><defs id="defs7386"><linearGradient id="linearGradient7212" osb:paint="solid"><stop style="stop-color:#000;stop-opacity:1" id="stop7214" offset="0"/></linearGradient></defs><g id="layer11" transform="translate(-80,-564)"><path id="rect4875" d="m 83.93925,567 c -0.90867,0.38331 -1.20523,1.21717 -0.68062,1.88108 l 3.78781,5.03784 -1.49639,1.63837 1.21173,1.44271 1.37957,-1.71892 1.3528,1.71892 1.20063,-1.38155 -1.45852,-1.69953 3.78781,-5.03784 C 93.54869,568.21717 93.25211,567.38331 92.34344,567 l -4.20209,5.53514 z" style="opacity:1;vector-effect:none;fill:#2e3436;fill-opacity:1;stroke:none;stroke-width:1;stroke-linecap:butt;stroke-linejoin:miter;stroke-miterlimit:4;stroke-dasharray:none;stroke-dashoffset:0;stroke-opacity:1;marker:none"/><path id="path12605" d="m 92,574 c -1.65685,0 -3,1.34315 -3,3 0,1.65685 1.34315,3 3,3 1.65685,0 3,-1.34315 3,-3 0,-1.65685 -1.34315,-3 -3,-3 z m 0,2 c 0.55228,0 1,0.44772 1,1 0,0.55228 -0.44772,1 -1,1 -0.55228,0 -1,-0.44772 -1,-1 0,-0.55228 0.44772,-1 1,-1 z" style="opacity:1;vector-effect:none;fill:#2e3436;fill-opacity:1;stroke:none;stroke-width:1;stroke-linecap:butt;stroke-linejoin:miter;stroke-miterlimit:4;stroke-dasharray:none;stroke-dashoffset:0;stroke-opacity:1;marker:none"/><path id="path12608" d="m 84,574 c -1.65685,0 -3,1.34315 -3,3 0,1.65685 1.34315,3 3,3 1.65685,0 3,-1.34315 3,-3 0,-1.65685 -1.34315,-3 -3,-3 z m 0,2 c 0.55228,0 1,0.44771 1,1 0,0.55228 -0.44772,1 -1,1 -0.55228,0 -1,-0.44772 -1,-1 0,-0.55229 0.44772,-1 1,-1 z" style="opacity:1;vector-effect:none;fill:#2e3436;fill-opacity:1;stroke:none;stroke-width:1;stroke-linecap:butt;stroke-linejoin:miter;stroke-miterlimit:4;stroke-dasharray:none;stroke-dashoffset:0;stroke-opacity:1;marker:none"/><path id="rect12610" d="m 87,569 h 1 v 1 h -1 z" style="opacity:1;vector-effect:none;fill:#2e3436;fill-opacity:1;stroke:none;stroke-width:1;stroke-linecap:butt;stroke-linejoin:miter;stroke-miterlimit:4;stroke-dasharray:none;stroke-dashoffset:0;stroke-opacity:1;marker:none"/><path id="rect12612" d="m 87,567 h 1 v 1 h -1 z" style="opacity:1;vector-effect:none;fill:#2e3436;fill-opacity:1;stroke:none;stroke-width:1;stroke-linecap:butt;stroke-linejoin:miter;stroke-miterlimit:4;stroke-dasharray:none;stroke-dashoffset:0;stroke-opacity:1;marker:none"/><path id="rect12614" d="m 87,565 h 1 v 1 h -1 z" style="opacity:1;vector-effect:none;fill:#2e3436;fill-opacity:1;stroke:none;stroke-width:1;stroke-linecap:butt;stroke-linejoin:miter;stroke-miterlimit:4;stroke-dasharray:none;stroke-dashoffset:0;stroke-opacity:1;marker:none"/><path id="rect12616" d="m 89,565 h 1 v 1 h -1 z" style="opacity:1;vector-effect:none;fill:#2e3436;fill-opacity:1;stroke:none;stroke-width:1;stroke-linecap:butt;stroke-linejoin:miter;stroke-miterlimit:4;stroke-dasharray:none;stroke-dashoffset:0;stroke-opacity:1;marker:none"/><path id="rect12618" d="m 91,565 h 1 v 1 h -1 z" style="opacity:1;vector-effect:none;fill:#2e3436;fill-opacity:1;stroke:none;stroke-width:1;stroke-linecap:butt;stroke-linejoin:miter;stroke-miterlimit:4;stroke-dasharray:none;stroke-dashoffset:0;stroke-opacity:1;marker:none"/><path id="rect12620" d="m 93,565 h 1 v 1 h -1 z" style="opacity:1;vector-effect:none;fill:#2e3436;fill-opacity:1;stroke:none;stroke-width:1;stroke-linecap:butt;stroke-linejoin:miter;stroke-miterlimit:4;stroke-dasharray:none;stroke-dashoffset:0;stroke-opacity:1;marker:none"/><path id="rect12622" d="m 95,565 h 1 v 1 h -1 z" style="opacity:1;vector-effect:none;fill:#2e3436;fill-opacity:1;stroke:none;stroke-width:1;stroke-linecap:butt;stroke-linejoin:miter;stroke-miterlimit:4;stroke-dasharray:none;stroke-dashoffset:0;stroke-opacity:1;marker:none"/></g></svg>