<svg xmlns="http://www.w3.org/2000/svg" xmlns:osb="http://www.openswatchbook.org/uri/2009/osb" xmlns:svg="http://www.w3.org/2000/svg" id="svg7384" width="16" height="16" version="1.1" viewBox="0 0 16 16"><metadata id="metadata90"/><title id="title9167">Gnome Symbolic Icon Theme</title><defs id="defs7386"><linearGradient id="linearGradient7212" osb:paint="solid"><stop style="stop-color:#000;stop-opacity:1" id="stop7214" offset="0"/></linearGradient></defs><g id="layer12" transform="translate(-39.9997,159.98872)"><path id="path18112" d="m 47.90615,-159.89497 c -0.5255,-0.0286 -1.03823,0.28305 -1.4375,0.96875 l -6.25,11.59375 c -0.53347,0.96339 0.04822,2.34375 1.09375,2.34375 h 13.15625 c 0.98172,0 1.90311,-1.15939 1.21875,-2.34375 l -6.3125,-11.53125 c -0.39872,-0.64617 -0.94325,-1.00262 -1.46875,-1.03125 z m 0.0625,3.9375 c 0.54448,-0.0172 1.04849,0.48677 1.03125,1.03125 v 3.9375 c 0.007,0.52831 -0.47163,1 -1,1 -0.52836,0 -1.00747,-0.47169 -1,-1 v -3.9375 c -0.008,-0.4666 0.3541,-0.91253 0.8125,-1 0.0511,-0.0145 0.10345,-0.0249 0.15625,-0.0312 z m 0.03125,6.96875 c 0.552285,0 1,0.44772 1,1 0,0.55228 -0.447715,1 -1,1 -0.552285,0 -1,-0.44772 -1,-1 0,-0.55228 0.447715,-1 1,-1 z" style="color:#bebebe;display:inline;overflow:visible;visibility:visible;fill:#2e3436;fill-opacity:1;fill-rule:nonzero;stroke:none;stroke-width:1.78124988;marker:none;enable-background:new"/></g></svg>